<?xml version="1.0" encoding="UTF-8"?>
<svg width="1024" height="1024" viewBox="0 0 1024 1024" xmlns="http://www.w3.org/2000/svg">
  <g fill="#FFFFFF" stroke="none" transform="scale(1.000000,1.000000)">
    <path d="M 0.50,0.50 L 1.50,0.50 Z"/>
    <path d="M 2.50,0.50 L 3.50,0.50 Z"/>
    <path d="M 4.50,0.50 L 5.50,0.50 Z"/>
    <path d="M 6.50,0.50 L 7.50,0.50 Z"/>
    <path d="M 8.50,0.50 L 9.50,0.50 Z"/>
    <path d="M 10.50,0.50 L 11.50,0.50 Z"/>
    <path d="M 12.50,0.50 L 13.50,0.50 Z"/>
    <path d="M 14.50,0.50 L 15.50,0.50 Z"/>
    <path d="M 16.50,0.50 L 17.50,0.50 Z"/>
    <path d="M 18.50,0.50 L 19.50,0.50 Z"/>
    <path d="M 20.50,0.50 L 21.50,0.50 Z"/>
    <path d="M 22.50,0.50 L 23.50,0.50 Z"/>
    <path d="M 24.50,0.50 L 25.50,0.50 Z"/>
    <path d="M 26.50,0.50 L 27.50,0.50 Z"/>
    <path d="M 28.50,0.50 L 29.50,0.50 Z"/>
    <path d="M 30.50,0.50 L 31.50,0.50 Z"/>
    <path d="M 32.50,0.50 L 33.50,0.50 Z"/>
    <path d="M 34.50,0.50 L 35.50,0.50 Z"/>
    <path d="M 36.50,0.50 L 37.50,0.50 Z"/>
    <path d="M 38.50,0.50 L 39.50,0.50 Z"/>
    <path d="M 40.50,0.50 L 41.50,0.50 Z"/>
    <path d="M 42.50,0.50 L 43.50,0.50 Z"/>
    <path d="M 44.50,0.50 L 45.50,0.50 Z"/>
    <path d="M 46.50,0.50 L 47.50,0.50 Z"/>
    <path d="M 48.50,0.50 L 49.50,0.50 Z"/>
    <path d="M 50.50,0.50 L 51.50,0.50 Z"/>
    <path d="M 52.50,0.50 L 53.50,0.50 Z"/>
    <path d="M 54.50,0.50 L 55.50,0.50 Z"/>
    <path d="M 56.50,0.50 L 57.50,0.50 Z"/>
    <path d="M 58.50,0.50 L 59.50,0.50 Z"/>
    <path d="M 60.50,0.50 L 61.50,0.50 Z"/>
    <path d="M 62.50,0.50 L 63.50,0.50 Z"/>
    <path d="M 64.50,0.50 L 65.50,0.50 Z"/>
    <path d="M 66.50,0.50 L 67.50,0.50 Z"/>
    <path d="M 68.50,0.50 L 69.50,0.50 Z"/>
    <path d="M 70.50,0.50 L 71.50,0.50 Z"/>
    <path d="M 72.50,0.50 L 73.50,0.50 Z"/>
    <path d="M 74.50,0.50 L 75.50,0.50 Z"/>
    <path d="M 76.50,0.50 L 77.50,0.50 Z"/>
    <path d="M 78.50,0.50 L 79.50,0.50 Z"/>
    <path d="M 80.50,0.50 L 81.50,0.50 Z"/>
    <path d="M 82.50,0.50 L 83.50,0.50 Z"/>
    <path d="M 84.50,0.50 L 85.50,0.50 Z"/>
    <path d="M 86.50,0.50 L 87.50,0.50 Z"/>
    <path d="M 88.50,0.50 L 89.50,0.50 Z"/>
    <path d="M 90.50,0.50 L 91.50,0.50 Z"/>
    <path d="M 92.50,0.50 L 93.50,0.50 Z"/>
    <path d="M 94.50,0.50 L 95.50,0.50 Z"/>
    <path d="M 96.50,0.50 L 97.50,0.50 Z"/>
    <path d="M 98.50,0.50 L 99.50,0.50 Z"/>
    <path d="M 100.50,0.50 L 101.50,0.50 Z"/>
    <path d="M 102.50,0.50 L 103.50,0.50 Z"/>
    <path d="M 104.50,0.50 L 105.50,0.50 Z"/>
    <path d="M 106.50,0.50 L 107.50,0.50 Z"/>
    <path d="M 108.50,0.50 L 109.50,0.50 Z"/>
    <path d="M 110.50,0.50 L 111.50,0.50 Z"/>
    <path d="M 112.50,0.50 L 113.50,0.50 Z"/>
    <path d="M 114.50,0.50 L 115.50,0.50 Z"/>
    <path d="M 116.50,0.50 L 117.50,0.50 Z"/>
    <path d="M 118.50,0.50 L 119.50,0.50 Z"/>
    <path d="M 120.50,0.50 L 121.50,0.50 Z"/>
    <path d="M 122.50,0.50 L 123.50,0.50 Z"/>
    <path d="M 124.50,0.50 L 125.50,0.50 Z"/>
    <path d="M 126.50,0.50 L 127.50,0.50 Z"/>
    <path d="M 128.50,0.50 L 129.50,0.50 Z"/>
    <path d="M 130.50,0.50 L 131.50,0.50 Z"/>
    <path d="M 132.50,0.50 L 133.50,0.50 Z"/>
    <path d="M 134.50,0.50 L 135.50,0.50 Z"/>
    <path d="M 136.50,0.50 L 137.50,0.50 Z"/>
    <path d="M 138.50,0.50 L 139.50,0.50 Z"/>
    <path d="M 140.50,0.50 L 141.50,0.50 Z"/>
    <path d="M 142.50,0.50 L 143.50,0.50 Z"/>
    <path d="M 144.50,0.50 L 145.50,0.50 Z"/>
    <path d="M 146.50,0.50 L 147.50,0.50 Z"/>
    <path d="M 148.50,0.50 L 149.50,0.50 Z"/>
    <path d="M 150.50,0.50 L 151.50,0.50 Z"/>
    <path d="M 152.50,0.50 L 153.50,0.50 Z"/>
    <path d="M 154.50,0.50 L 155.50,0.50 Z"/>
    <path d="M 156.50,0.50 L 157.50,0.50 Z"/>
    <path d="M 158.50,0.50 L 159.50,0.50 Z"/>
    <path d="M 160.50,0.50 L 161.50,0.50 Z"/>
    <path d="M 162.50,0.50 L 163.50,0.50 Z"/>
    <path d="M 164.50,0.50 L 165.50,0.50 Z"/>
    <path d="M 166.50,0.50 L 167.50,0.50 Z"/>
    <path d="M 168.50,0.50 L 169.50,0.50 Z"/>
    <path d="M 170.50,0.50 L 171.50,0.50 Z"/>
    <path d="M 172.50,0.50 L 173.50,0.50 Z"/>
    <path d="M 174.50,0.50 L 175.50,0.50 Z"/>
    <path d="M 176.50,0.50 L 177.50,0.50 Z"/>
    <path d="M 178.50,0.50 L 179.50,0.50 Z"/>
    <path d="M 180.50,0.50 L 181.50,0.50 Z"/>
    <path d="M 182.50,0.50 L 183.50,0.50 Z"/>
    <path d="M 184.50,0.50 L 185.50,0.50 Z"/>
    <path d="M 186.50,0.50 L 187.50,0.50 Z"/>
    <path d="M 188.50,0.50 L 189.50,0.50 Z"/>
    <path d="M 190.50,0.50 L 191.50,0.50 Z"/>
    <path d="M 192.50,0.50 L 193.50,0.50 Z"/>
    <path d="M 194.50,0.50 L 195.50,0.50 Z"/>
    <path d="M 196.50,0.50 L 197.50,0.50 Z"/>
    <path d="M 198.50,0.50 L 199.50,0.50 Z"/>
    <path d="M 200.50,0.50 L 201.50,0.50 Z"/>
    <path d="M 202.50,0.50 L 203.50,0.50 Z"/>
    <path d="M 204.50,0.50 L 205.50,0.50 Z"/>
    <path d="M 206.50,0.50 L 207.50,0.50 Z"/>
    <path d="M 208.50,0.50 L 209.50,0.50 Z"/>
    <path d="M 210.50,0.50 L 211.50,0.50 Z"/>
    <path d="M 212.50,0.50 L 213.50,0.50 Z"/>
    <path d="M 214.50,0.50 L 215.50,0.50 Z"/>
    <path d="M 216.50,0.50 L 217.50,0.50 Z"/>
    <path d="M 218.50,0.50 L 219.50,0.50 Z"/>
    <path d="M 220.50,0.50 L 221.50,0.50 Z"/>
    <path d="M 222.50,0.50 L 223.50,0.50 Z"/>
    <path d="M 224.50,0.50 L 225.50,0.50 Z"/>
    <path d="M 226.50,0.50 L 227.50,0.50 Z"/>
    <path d="M 228.50,0.50 L 229.50,0.50 Z"/>
    <path d="M 230.50,0.50 L 231.50,0.50 Z"/>
    <path d="M 232.50,0.50 L 233.50,0.50 Z"/>
    <path d="M 234.50,0.50 L 235.50,0.50 Z"/>
    <path d="M 236.50,0.50 L 237.50,0.50 Z"/>
    <path d="M 238.50,0.50 L 239.50,0.50 Z"/>
    <path d="M 240.50,0.50 L 241.50,0.50 Z"/>
    <path d="M 242.50,0.50 L 243.50,0.50 Z"/>
    <path d="M 244.50,0.50 L 245.50,0.50 Z"/>
    <path d="M 246.50,0.50 L 247.50,0.50 Z"/>
    <path d="M 248.50,0.50 L 249.50,0.50 Z"/>
    <path d="M 250.50,0.50 L 251.50,0.50 Z"/>
    <path d="M 252.50,0.50 L 253.50,0.50 Z"/>
    <path d="M 254.50,0.50 L 255.50,0.50 Z"/>
    <path d="M 256.50,0.50 L 257.50,0.50 Z"/>
    <path d="M 258.50,0.50 L 259.50,0.50 Z"/>
    <path d="M 260.50,0.50 L 261.50,0.50 Z"/>
    <path d="M 262.50,0.50 L 263.50,0.50 Z"/>
    <path d="M 264.50,0.50 L 265.50,0.50 Z"/>
    <path d="M 266.50,0.50 L 267.50,0.50 Z"/>
    <path d="M 268.50,0.50 L 269.50,0.50 Z"/>
    <path d="M 270.50,0.50 L 271.50,0.50 Z"/>
    <path d="M 272.50,0.50 L 273.50,0.50 Z"/>
    <path d="M 274.50,0.50 L 275.50,0.50 Z"/>
    <path d="M 276.50,0.50 L 277.50,0.50 Z"/>
    <path d="M 278.50,0.50 L 279.50,0.50 Z"/>
    <path d="M 280.50,0.50 L 281.50,0.50 Z"/>
    <path d="M 282.50,0.50 L 283.50,0.50 Z"/>
    <path d="M 284.50,0.50 L 285.50,0.50 Z"/>
    <path d="M 286.50,0.50 L 287.50,0.50 Z"/>
    <path d="M 288.50,0.50 L 289.50,0.50 Z"/>
    <path d="M 290.50,0.50 L 291.50,0.50 Z"/>
    <path d="M 292.50,0.50 L 293.50,0.50 Z"/>
    <path d="M 294.50,0.50 L 295.50,0.50 Z"/>
    <path d="M 296.50,0.50 L 297.50,0.50 Z"/>
    <path d="M 298.50,0.50 L 299.50,0.50 Z"/>
    <path d="M 300.50,0.50 L 301.50,0.50 Z"/>
    <path d="M 302.50,0.50 L 303.50,0.50 Z"/>
    <path d="M 304.50,0.50 L 305.50,0.50 Z"/>
    <path d="M 306.50,0.50 L 307.50,0.50 Z"/>
    <path d="M 308.50,0.50 L 309.50,0.50 Z"/>
    <path d="M 310.50,0.50 L 311.50,0.50 Z"/>
    <path d="M 312.50,0.50 L 313.50,0.50 Z"/>
    <path d="M 314.50,0.50 L 315.50,0.50 Z"/>
    <path d="M 316.50,0.50 L 317.50,0.50 Z"/>
    <path d="M 318.50,0.50 L 319.50,0.50 Z"/>
    <path d="M 320.50,0.50 L 321.50,0.50 Z"/>
    <path d="M 322.50,0.50 L 323.50,0.50 Z"/>
    <path d="M 324.50,0.50 L 325.50,0.50 Z"/>
    <path d="M 326.50,0.50 L 327.50,0.50 Z"/>
    <path d="M 328.50,0.50 L 329.50,0.50 Z"/>
    <path d="M 330.50,0.50 L 331.50,0.50 Z"/>
    <path d="M 332.50,0.50 L 333.50,0.50 Z"/>
    <path d="M 334.50,0.50 L 335.50,0.50 Z"/>
    <path d="M 336.50,0.50 L 337.50,0.50 Z"/>
    <path d="M 338.50,0.50 L 339.50,0.50 Z"/>
    <path d="M 340.50,0.50 L 341.50,0.50 Z"/>
    <path d="M 342.50,0.50 L 343.50,0.50 Z"/>
    <path d="M 344.50,0.50 L 345.50,0.50 Z"/>
    <path d="M 346.50,0.50 L 347.50,0.50 Z"/>
    <path d="M 348.50,0.50 L 349.50,0.50 Z"/>
    <path d="M 350.50,0.50 L 351.50,0.50 Z"/>
    <path d="M 352.50,0.50 L 353.50,0.50 Z"/>
    <path d="M 354.50,0.50 L 355.50,0.50 Z"/>
    <path d="M 356.50,0.50 L 357.50,0.50 Z"/>
    <path d="M 358.50,0.50 L 359.50,0.50 Z"/>
    <path d="M 360.50,0.50 L 361.50,0.50 Z"/>
    <path d="M 362.50,0.50 L 363.50,0.50 Z"/>
    <path d="M 364.50,0.50 L 365.50,0.50 Z"/>
    <path d="M 366.50,0.50 L 367.50,0.50 Z"/>
    <path d="M 368.50,0.50 L 369.50,0.50 Z"/>
    <path d="M 370.50,0.50 L 371.50,0.50 Z"/>
    <path d="M 372.50,0.50 L 373.50,0.50 Z"/>
    <path d="M 374.50,0.50 L 375.50,0.50 Z"/>
    <path d="M 376.50,0.50 L 377.50,0.50 Z"/>
    <path d="M 378.50,0.50 L 379.50,0.50 Z"/>
    <path d="M 380.50,0.50 L 381.50,0.50 Z"/>
    <path d="M 382.50,0.50 L 383.50,0.50 Z"/>
    <path d="M 384.50,0.50 L 385.50,0.50 Z"/>
    <path d="M 386.50,0.50 L 387.50,0.50 Z"/>
    <path d="M 388.50,0.50 L 389.50,0.50 Z"/>
    <path d="M 390.50,0.50 L 391.50,0.50 Z"/>
    <path d="M 392.50,0.50 L 393.50,0.50 Z"/>
    <path d="M 394.50,0.50 L 395.50,0.50 Z"/>
    <path d="M 396.50,0.50 L 397.50,0.50 Z"/>
    <path d="M 398.50,0.50 L 399.50,0.50 Z"/>
    <path d="M 400.50,0.50 L 401.50,0.50 Z"/>
    <path d="M 402.50,0.50 L 403.50,0.50 Z"/>
    <path d="M 404.50,0.50 L 405.50,0.50 Z"/>
    <path d="M 406.50,0.50 L 407.50,0.50 Z"/>
    <path d="M 408.50,0.50 L 409.50,0.50 Z"/>
    <path d="M 410.50,0.50 L 411.50,0.50 Z"/>
    <path d="M 412.50,0.50 L 413.50,0.50 Z"/>
    <path d="M 414.50,0.50 L 415.50,0.50 Z"/>
    <path d="M 416.50,0.50 L 417.50,0.50 Z"/>
    <path d="M 418.50,0.50 L 419.50,0.50 Z"/>
    <path d="M 420.50,0.50 L 421.50,0.50 Z"/>
    <path d="M 422.50,0.50 L 423.50,0.50 Z"/>
    <path d="M 424.50,0.50 L 425.50,0.50 Z"/>
    <path d="M 426.50,0.50 L 427.50,0.50 Z"/>
    <path d="M 428.50,0.50 L 429.50,0.50 Z"/>
    <path d="M 430.50,0.50 L 431.50,0.50 Z"/>
    <path d="M 432.50,0.50 L 433.50,0.50 Z"/>
    <path d="M 434.50,0.50 L 435.50,0.50 Z"/>
    <path d="M 436.50,0.50 L 437.50,0.50 Z"/>
    <path d="M 438.50,0.50 L 439.50,0.50 Z"/>
    <path d="M 440.50,0.50 L 441.50,0.50 Z"/>
    <path d="M 442.50,0.50 L 443.50,0.50 Z"/>
    <path d="M 444.50,0.50 L 445.50,0.50 Z"/>
    <path d="M 446.50,0.50 L 447.50,0.50 Z"/>
    <path d="M 448.50,0.50 L 449.50,0.50 Z"/>
    <path d="M 450.50,0.50 L 451.50,0.50 Z"/>
    <path d="M 452.50,0.50 L 453.50,0.50 Z"/>
    <path d="M 454.50,0.50 L 455.50,0.50 Z"/>
    <path d="M 456.50,0.50 L 457.50,0.50 Z"/>
    <path d="M 458.50,0.50 L 459.50,0.50 Z"/>
    <path d="M 460.50,0.50 L 461.50,0.50 Z"/>
    <path d="M 462.50,0.50 L 463.50,0.50 Z"/>
    <path d="M 464.50,0.50 L 465.50,0.50 Z"/>
    <path d="M 466.50,0.50 L 467.50,0.50 Z"/>
    <path d="M 468.50,0.50 L 469.50,0.50 Z"/>
    <path d="M 470.50,0.50 L 471.50,0.50 Z"/>
    <path d="M 472.50,0.50 L 473.50,0.50 Z"/>
    <path d="M 474.50,0.50 L 475.50,0.50 Z"/>
    <path d="M 476.50,0.50 L 477.50,0.50 Z"/>
    <path d="M 478.50,0.50 L 479.50,0.50 Z"/>
    <path d="M 480.50,0.50 L 481.50,0.50 Z"/>
    <path d="M 482.50,0.50 L 483.50,0.50 Z"/>
    <path d="M 484.50,0.50 L 485.50,0.50 Z"/>
    <path d="M 486.50,0.50 L 487.50,0.50 Z"/>
    <path d="M 488.50,0.50 L 489.50,0.50 Z"/>
    <path d="M 490.50,0.50 L 491.50,0.50 Z"/>
    <path d="M 492.50,0.50 L 493.50,0.50 Z"/>
    <path d="M 494.50,0.50 L 495.50,0.50 Z"/>
    <path d="M 496.50,0.50 L 497.50,0.50 Z"/>
    <path d="M 498.50,0.50 L 499.50,0.50 Z"/>
    <path d="M 500.50,0.50 L 501.50,0.50 Z"/>
    <path d="M 502.50,0.50 L 503.50,0.50 Z"/>
    <path d="M 504.50,0.50 L 505.50,0.50 Z"/>
    <path d="M 506.50,0.50 L 507.50,0.50 Z"/>
    <path d="M 508.50,0.50 L 509.50,0.50 Z"/>
    <path d="M 510.50,0.50 L 511.50,0.50 Z"/>
    <path d="M 512.50,0.50 L 513.50,0.50 Z"/>
    <path d="M 514.50,0.50 L 515.50,0.50 Z"/>
    <path d="M 516.50,0.50 L 517.50,0.50 Z"/>
    <path d="M 518.50,0.50 L 519.50,0.50 Z"/>
    <path d="M 520.50,0.50 L 521.50,0.50 Z"/>
    <path d="M 522.50,0.50 L 523.50,0.50 Z"/>
    <path d="M 524.50,0.50 L 525.50,0.50 Z"/>
    <path d="M 526.50,0.50 L 527.50,0.50 Z"/>
    <path d="M 528.50,0.50 L 529.50,0.50 Z"/>
    <path d="M 530.50,0.50 L 531.50,0.50 Z"/>
    <path d="M 532.50,0.50 L 533.50,0.50 Z"/>
    <path d="M 534.50,0.50 L 535.50,0.50 Z"/>
    <path d="M 536.50,0.50 L 537.50,0.50 Z"/>
    <path d="M 538.50,0.50 L 539.50,0.50 Z"/>
    <path d="M 540.50,0.50 L 541.50,0.50 Z"/>
    <path d="M 542.50,0.50 L 543.50,0.50 Z"/>
    <path d="M 544.50,0.50 L 545.50,0.50 Z"/>
    <path d="M 546.50,0.50 L 547.50,0.50 Z"/>
    <path d="M 548.50,0.50 L 549.50,0.50 Z"/>
    <path d="M 550.50,0.50 L 551.50,0.50 Z"/>
    <path d="M 552.50,0.50 L 553.50,0.50 Z"/>
    <path d="M 554.50,0.50 L 555.50,0.50 Z"/>
    <path d="M 556.50,0.50 L 557.50,0.50 Z"/>
    <path d="M 558.50,0.50 L 559.50,0.50 Z"/>
    <path d="M 560.50,0.50 L 561.50,0.50 Z"/>
    <path d="M 562.50,0.50 L 563.50,0.50 Z"/>
    <path d="M 564.50,0.50 L 565.50,0.50 Z"/>
    <path d="M 566.50,0.50 L 567.50,0.50 Z"/>
    <path d="M 568.50,0.50 L 569.50,0.50 Z"/>
    <path d="M 570.50,0.50 L 571.50,0.50 Z"/>
    <path d="M 572.50,0.50 L 573.50,0.50 Z"/>
    <path d="M 574.50,0.50 L 575.50,0.50 Z"/>
    <path d="M 576.50,0.50 L 577.50,0.50 Z"/>
    <path d="M 578.50,0.50 L 579.50,0.50 Z"/>
    <path d="M 580.50,0.50 L 581.50,0.50 Z"/>
    <path d="M 582.50,0.50 L 583.50,0.50 Z"/>
    <path d="M 584.50,0.50 L 585.50,0.50 Z"/>
    <path d="M 586.50,0.50 L 587.50,0.50 Z"/>
    <path d="M 588.50,0.50 L 589.50,0.50 Z"/>
    <path d="M 590.50,0.50 L 591.50,0.50 Z"/>
    <path d="M 592.50,0.50 L 593.50,0.50 Z"/>
    <path d="M 594.50,0.50 L 595.50,0.50 Z"/>
    <path d="M 596.50,0.50 L 597.50,0.50 Z"/>
    <path d="M 598.50,0.50 L 599.50,0.50 Z"/>
    <path d="M 600.50,0.50 L 601.50,0.50 Z"/>
    <path d="M 602.50,0.50 L 603.50,0.50 Z"/>
    <path d="M 604.50,0.50 L 605.50,0.50 Z"/>
    <path d="M 606.50,0.50 L 607.50,0.50 Z"/>
    <path d="M 608.50,0.50 L 609.50,0.50 Z"/>
    <path d="M 610.50,0.50 L 611.50,0.50 Z"/>
    <path d="M 612.50,0.50 L 613.50,0.50 Z"/>
    <path d="M 614.50,0.50 L 615.50,0.50 Z"/>
    <path d="M 616.50,0.50 L 617.50,0.50 Z"/>
    <path d="M 618.50,0.50 L 619.50,0.50 Z"/>
    <path d="M 620.50,0.50 L 621.50,0.50 Z"/>
    <path d="M 622.50,0.50 L 623.50,0.50 Z"/>
    <path d="M 624.50,0.50 L 625.50,0.50 Z"/>
    <path d="M 626.50,0.50 L 627.50,0.50 Z"/>
    <path d="M 628.50,0.50 L 629.50,0.50 Z"/>
    <path d="M 630.50,0.50 L 631.50,0.50 Z"/>
    <path d="M 632.50,0.50 L 633.50,0.50 Z"/>
    <path d="M 634.50,0.50 L 635.50,0.50 Z"/>
    <path d="M 636.50,0.50 L 637.50,0.50 Z"/>
    <path d="M 638.50,0.50 L 639.50,0.50 Z"/>
    <path d="M 640.50,0.50 L 641.50,0.50 Z"/>
    <path d="M 642.50,0.50 L 643.50,0.50 Z"/>
    <path d="M 644.50,0.50 L 645.50,0.50 Z"/>
    <path d="M 646.50,0.50 L 647.50,0.50 Z"/>
    <path d="M 648.50,0.50 L 649.50,0.50 Z"/>
    <path d="M 650.50,0.50 L 651.50,0.50 Z"/>
    <path d="M 652.50,0.50 L 653.50,0.50 Z"/>
    <path d="M 654.50,0.50 L 655.50,0.50 Z"/>
    <path d="M 656.50,0.50 L 657.50,0.50 Z"/>
    <path d="M 658.50,0.50 L 659.50,0.50 Z"/>
    <path d="M 660.50,0.50 L 661.50,0.50 Z"/>
    <path d="M 662.50,0.50 L 663.50,0.50 Z"/>
    <path d="M 664.50,0.50 L 665.50,0.50 Z"/>
    <path d="M 666.50,0.50 L 667.50,0.50 Z"/>
    <path d="M 668.50,0.50 L 669.50,0.50 Z"/>
    <path d="M 670.50,0.50 L 671.50,0.50 Z"/>
    <path d="M 672.50,0.50 L 673.50,0.50 Z"/>
    <path d="M 674.50,0.50 L 675.50,0.50 Z"/>
    <path d="M 676.50,0.50 L 677.50,0.50 Z"/>
    <path d="M 678.50,0.50 L 679.50,0.50 Z"/>
    <path d="M 680.50,0.50 L 681.50,0.50 Z"/>
    <path d="M 682.50,0.50 L 683.50,0.50 Z"/>
    <path d="M 684.50,0.50 L 685.50,0.50 Z"/>
    <path d="M 686.50,0.50 L 687.50,0.50 Z"/>
    <path d="M 688.50,0.50 L 689.50,0.50 Z"/>
    <path d="M 690.50,0.50 L 691.50,0.50 Z"/>
    <path d="M 692.50,0.50 L 693.50,0.50 Z"/>
    <path d="M 694.50,0.50 L 695.50,0.50 Z"/>
    <path d="M 696.50,0.50 L 697.50,0.50 Z"/>
    <path d="M 698.50,0.50 L 699.50,0.50 Z"/>
    <path d="M 700.50,0.50 L 701.50,0.50 Z"/>
    <path d="M 702.50,0.50 L 703.50,0.50 Z"/>
    <path d="M 704.50,0.50 L 705.50,0.50 Z"/>
    <path d="M 706.50,0.50 L 707.50,0.50 Z"/>
    <path d="M 708.50,0.50 L 709.50,0.50 Z"/>
    <path d="M 710.50,0.50 L 711.50,0.50 Z"/>
    <path d="M 712.50,0.50 L 713.50,0.50 Z"/>
    <path d="M 714.50,0.50 L 715.50,0.50 Z"/>
    <path d="M 716.50,0.50 L 717.50,0.50 Z"/>
    <path d="M 718.50,0.50 L 719.50,0.50 Z"/>
    <path d="M 720.50,0.50 L 721.50,0.50 Z"/>
    <path d="M 722.50,0.50 L 723.50,0.50 Z"/>
    <path d="M 724.50,0.50 L 725.50,0.50 Z"/>
    <path d="M 726.50,0.50 L 727.50,0.50 Z"/>
    <path d="M 728.50,0.50 L 729.50,0.50 Z"/>
    <path d="M 730.50,0.50 L 731.50,0.50 Z"/>
    <path d="M 732.50,0.50 L 733.50,0.50 Z"/>
    <path d="M 734.50,0.50 L 735.50,0.50 Z"/>
    <path d="M 736.50,0.50 L 737.50,0.50 Z"/>
    <path d="M 738.50,0.50 L 739.50,0.50 Z"/>
    <path d="M 740.50,0.50 L 741.50,0.50 Z"/>
    <path d="M 742.50,0.50 L 743.50,0.50 Z"/>
    <path d="M 744.50,0.50 L 745.50,0.50 Z"/>
    <path d="M 746.50,0.50 L 747.50,0.50 Z"/>
    <path d="M 748.50,0.50 L 749.50,0.50 Z"/>
    <path d="M 750.50,0.50 L 751.50,0.50 Z"/>
    <path d="M 752.50,0.50 L 753.50,0.50 Z"/>
    <path d="M 754.50,0.50 L 755.50,0.50 Z"/>
    <path d="M 756.50,0.50 L 757.50,0.50 Z"/>
    <path d="M 758.50,0.50 L 759.50,0.50 Z"/>
    <path d="M 760.50,0.50 L 761.50,0.50 Z"/>
    <path d="M 762.50,0.50 L 763.50,0.50 Z"/>
    <path d="M 764.50,0.50 L 765.50,0.50 Z"/>
    <path d="M 766.50,0.50 L 767.50,0.50 Z"/>
    <path d="M 768.50,0.50 L 769.50,0.50 Z"/>
    <path d="M 770.50,0.50 L 771.50,0.50 Z"/>
    <path d="M 772.50,0.50 L 773.50,0.50 Z"/>
    <path d="M 774.50,0.50 L 775.50,0.50 Z"/>
    <path d="M 776.50,0.50 L 777.50,0.50 Z"/>
    <path d="M 778.50,0.50 L 779.50,0.50 Z"/>
    <path d="M 780.50,0.50 L 781.50,0.50 Z"/>
    <path d="M 782.50,0.50 L 783.50,0.50 Z"/>
    <path d="M 784.50,0.50 L 785.50,0.50 Z"/>
    <path d="M 786.50,0.50 L 787.50,0.50 Z"/>
    <path d="M 788.50,0.50 L 789.50,0.50 Z"/>
    <path d="M 790.50,0.50 L 791.50,0.50 Z"/>
    <path d="M 792.50,0.50 L 793.50,0.50 Z"/>
    <path d="M 794.50,0.50 L 795.50,0.50 Z"/>
    <path d="M 796.50,0.50 L 797.50,0.50 Z"/>
    <path d="M 798.50,0.50 L 799.50,0.50 Z"/>
    <path d="M 800.50,0.50 L 801.50,0.50 Z"/>
    <path d="M 802.50,0.50 L 803.50,0.50 Z"/>
    <path d="M 804.50,0.50 L 805.50,0.50 Z"/>
    <path d="M 806.50,0.50 L 807.50,0.50 Z"/>
    <path d="M 808.50,0.50 L 809.50,0.50 Z"/>
    <path d="M 810.50,0.50 L 811.50,0.50 Z"/>
    <path d="M 812.50,0.50 L 813.50,0.50 Z"/>
    <path d="M 814.50,0.50 L 815.50,0.50 Z"/>
    <path d="M 816.50,0.50 L 817.50,0.50 Z"/>
    <path d="M 818.50,0.50 L 819.50,0.50 Z"/>
    <path d="M 820.50,0.50 L 821.50,0.50 Z"/>
    <path d="M 822.50,0.50 L 823.50,0.50 Z"/>
    <path d="M 824.50,0.50 L 825.50,0.50 Z"/>
    <path d="M 826.50,0.50 L 827.50,0.50 Z"/>
    <path d="M 828.50,0.50 L 829.50,0.50 Z"/>
    <path d="M 830.50,0.50 L 831.50,0.50 Z"/>
    <path d="M 832.50,0.50 L 833.50,0.50 Z"/>
    <path d="M 834.50,0.50 L 835.50,0.50 Z"/>
    <path d="M 836.50,0.50 L 837.50,0.50 Z"/>
    <path d="M 838.50,0.50 L 839.50,0.50 Z"/>
    <path d="M 840.50,0.50 L 841.50,0.50 Z"/>
    <path d="M 842.50,0.50 L 843.50,0.50 Z"/>
    <path d="M 844.50,0.50 L 845.50,0.50 Z"/>
    <path d="M 846.50,0.50 L 847.50,0.50 Z"/>
    <path d="M 848.50,0.50 L 849.50,0.50 Z"/>
    <path d="M 850.50,0.50 L 851.50,0.50 Z"/>
    <path d="M 852.50,0.50 L 853.50,0.50 Z"/>
    <path d="M 854.50,0.50 L 855.50,0.50 Z"/>
    <path d="M 856.50,0.50 L 857.50,0.50 Z"/>
    <path d="M 858.50,0.50 L 859.50,0.50 Z"/>
    <path d="M 860.50,0.50 L 861.50,0.50 Z"/>
    <path d="M 862.50,0.50 L 863.50,0.50 Z"/>
    <path d="M 864.50,0.50 L 865.50,0.50 Z"/>
    <path d="M 866.50,0.50 L 867.50,0.50 Z"/>
    <path d="M 868.50,0.50 L 869.50,0.50 Z"/>
    <path d="M 870.50,0.50 L 871.50,0.50 Z"/>
    <path d="M 872.50,0.50 L 873.50,0.50 Z"/>
    <path d="M 874.50,0.50 L 875.50,0.50 Z"/>
    <path d="M 876.50,0.50 L 877.50,0.50 Z"/>
    <path d="M 878.50,0.50 L 879.50,0.50 Z"/>
    <path d="M 880.50,0.50 L 881.50,0.50 Z"/>
    <path d="M 882.50,0.50 L 883.50,0.50 Z"/>
    <path d="M 884.50,0.50 L 885.50,0.50 Z"/>
    <path d="M 886.50,0.50 L 887.50,0.50 Z"/>
    <path d="M 888.50,0.50 L 889.50,0.50 Z"/>
    <path d="M 890.50,0.50 L 891.50,0.50 Z"/>
    <path d="M 892.50,0.50 L 893.50,0.50 Z"/>
    <path d="M 894.50,0.50 L 895.50,0.50 Z"/>
    <path d="M 896.50,0.50 L 897.50,0.50 Z"/>
    <path d="M 898.50,0.50 L 899.50,0.50 Z"/>
    <path d="M 900.50,0.50 L 901.50,0.50 Z"/>
    <path d="M 902.50,0.50 L 903.50,0.50 Z"/>
    <path d="M 904.50,0.50 L 905.50,0.50 Z"/>
    <path d="M 906.50,0.50 L 907.50,0.50 Z"/>
    <path d="M 908.50,0.50 L 909.50,0.50 Z"/>
    <path d="M 910.50,0.50 L 911.50,0.50 Z"/>
    <path d="M 912.50,0.50 L 913.50,0.50 Z"/>
    <path d="M 914.50,0.50 L 915.50,0.50 Z"/>
    <path d="M 916.50,0.50 L 917.50,0.50 Z"/>
    <path d="M 918.50,0.50 L 919.50,0.50 Z"/>
    <path d="M 920.50,0.50 L 921.50,0.50 Z"/>
    <path d="M 922.50,0.50 L 923.50,0.50 Z"/>
    <path d="M 924.50,0.50 L 925.50,0.50 Z"/>
    <path d="M 926.50,0.50 L 927.50,0.50 Z"/>
    <path d="M 928.50,0.50 L 929.50,0.50 Z"/>
    <path d="M 930.50,0.50 L 931.50,0.50 Z"/>
    <path d="M 932.50,0.50 L 933.50,0.50 Z"/>
    <path d="M 934.50,0.50 L 935.50,0.50 Z"/>
    <path d="M 936.50,0.50 L 937.50,0.50 Z"/>
    <path d="M 938.50,0.50 L 939.50,0.50 Z"/>
    <path d="M 940.50,0.50 L 941.50,0.50 Z"/>
    <path d="M 942.50,0.50 L 943.50,0.50 Z"/>
    <path d="M 944.50,0.50 L 945.50,0.50 Z"/>
    <path d="M 946.50,0.50 L 947.50,0.50 Z"/>
    <path d="M 948.50,0.50 L 949.50,0.50 Z"/>
    <path d="M 950.50,0.50 L 951.50,0.50 Z"/>
    <path d="M 952.50,0.50 L 953.50,0.50 Z"/>
    <path d="M 954.50,0.50 L 955.50,0.50 Z"/>
    <path d="M 956.50,0.50 L 957.50,0.50 Z"/>
    <path d="M 958.50,0.50 L 959.50,0.50 Z"/>
    <path d="M 960.50,0.50 L 961.50,0.50 Z"/>
    <path d="M 962.50,0.50 L 963.50,0.50 Z"/>
    <path d="M 964.50,0.50 L 965.50,0.50 Z"/>
    <path d="M 966.50,0.50 L 967.50,0.50 Z"/>
    <path d="M 968.50,0.50 L 969.50,0.50 Z"/>
    <path d="M 970.50,0.50 L 971.50,0.50 Z"/>
    <path d="M 972.50,0.50 L 973.50,0.50 Z"/>
    <path d="M 974.50,0.50 L 975.50,0.50 Z"/>
    <path d="M 976.50,0.50 L 977.50,0.50 Z"/>
    <path d="M 978.50,0.50 L 979.50,0.50 Z"/>
    <path d="M 980.50,0.50 L 981.50,0.50 Z"/>
    <path d="M 982.50,0.50 L 983.50,0.50 Z"/>
    <path d="M 984.50,0.50 L 985.50,0.50 Z"/>
    <path d="M 986.50,0.50 L 987.50,0.50 Z"/>
    <path d="M 988.50,0.50 L 989.50,0.50 Z"/>
    <path d="M 990.50,0.50 L 991.50,0.50 Z"/>
    <path d="M 992.50,0.50 L 993.50,0.50 Z"/>
    <path d="M 994.50,0.50 L 995.50,0.50 Z"/>
    <path d="M 996.50,0.50 L 997.50,0.50 Z"/>
    <path d="M 998.50,0.50 L 999.50,0.50 Z"/>
    <path d="M 1000.50,0.50 L 1001.50,0.50 Z"/>
    <path d="M 1002.50,0.50 L 1003.50,0.50 Z"/>
    <path d="M 1004.50,0.50 L 1005.50,0.50 Z"/>
    <path d="M 1006.50,0.50 L 1007.50,0.50 Z"/>
    <path d="M 1008.50,0.50 L 1009.50,0.50 Z"/>
    <path d="M 1010.50,0.50 L 1011.50,0.50 Z"/>
    <path d="M 1012.50,0.50 L 1013.50,0.50 Z"/>
    <path d="M 1014.50,0.50 L 1015.50,0.50 Z"/>
    <path d="M 1016.50,0.50 L 1017.50,0.50 Z"/>
    <path d="M 1018.50,0.50 L 1019.50,0.50 Z"/>
    <path d="M 1020.50,0.50 L 1021.50,0.50 Z"/>
    <path d="M 1022.50,0.50 L 1023.50,0.50 Z"/>
    <path d="M 0.50,2.50 L 1.50,2.50 Z"/>
    <path d="M 1023.50,2.50 L 1023.50,1023.50 L 0.50,1023.50 L 0.50,0.50 L 1023.50,1.50 Z"/>
    <path d="M 266.50,114.50 L 239.50,117.50 L 212.50,125.50 L 193.50,134.50 L 171.50,149.50 L 149.50,171.50 L 135.50,191.50 L 125.50,211.50 L 115.50,247.50 L 113.50,266.50 L 113.50,759.50 L 115.50,777.50 L 121.50,802.50 L 133.50,829.50 L 147.50,850.50 L 168.50,872.50 L 190.50,888.50 L 212.50,899.50 L 235.50,906.50 L 252.50,909.50 L 770.50,909.50 L 788.50,906.50 L 808.50,900.50 L 828.50,891.50 L 848.50,878.50 L 862.50,866.50 L 874.50,853.50 L 890.50,830.50 L 898.50,814.50 L 904.50,797.50 L 910.50,764.50 L 910.50,261.50 L 907.50,239.50 L 900.50,215.50 L 891.50,195.50 L 878.50,175.50 L 861.50,156.50 L 852.50,148.50 L 833.50,135.50 L 813.50,125.50 L 798.50,120.50 L 773.50,115.50 L 267.50,114.50 Z"/>
    <path d="M 490.50,226.50 L 491.50,226.50 Z"/>
    <path d="M 492.50,226.50 L 493.50,226.50 Z"/>
    <path d="M 494.50,226.50 L 495.50,226.50 Z"/>
    <path d="M 496.50,226.50 L 497.50,226.50 Z"/>
    <path d="M 498.50,226.50 L 499.50,226.50 Z"/>
    <path d="M 500.50,226.50 L 501.50,226.50 Z"/>
    <path d="M 502.50,226.50 L 503.50,226.50 Z"/>
    <path d="M 504.50,226.50 L 505.50,226.50 Z"/>
    <path d="M 506.50,226.50 L 507.50,226.50 Z"/>
    <path d="M 508.50,226.50 L 509.50,226.50 Z"/>
    <path d="M 510.50,226.50 L 511.50,226.50 Z"/>
    <path d="M 512.50,226.50 L 513.50,226.50 Z"/>
    <path d="M 514.50,226.50 L 515.50,226.50 Z"/>
    <path d="M 516.50,226.50 L 517.50,226.50 Z"/>
    <path d="M 518.50,226.50 L 519.50,226.50 Z"/>
    <path d="M 520.50,226.50 L 521.50,226.50 Z"/>
    <path d="M 522.50,226.50 L 523.50,226.50 Z"/>
    <path d="M 524.50,226.50 L 525.50,226.50 Z"/>
    <path d="M 526.50,226.50 L 527.50,226.50 Z"/>
    <path d="M 528.50,226.50 L 529.50,226.50 Z"/>
    <path d="M 530.50,226.50 L 531.50,226.50 Z"/>
    <path d="M 532.50,226.50 L 533.50,226.50 Z"/>
    <path d="M 481.50,227.50 L 482.50,227.50 Z"/>
    <path d="M 483.50,227.50 L 484.50,227.50 Z"/>
    <path d="M 485.50,227.50 L 486.50,227.50 Z"/>
    <path d="M 487.50,227.50 L 488.50,227.50 Z"/>
    <path d="M 489.50,227.50 L 490.50,227.50 Z"/>
    <path d="M 534.50,227.50 L 535.50,227.50 Z"/>
    <path d="M 536.50,227.50 L 537.50,227.50 Z"/>
    <path d="M 538.50,227.50 L 539.50,227.50 Z"/>
    <path d="M 540.50,227.50 L 541.50,227.50 Z"/>
    <path d="M 542.50,227.50 L 543.50,227.50 Z"/>
    <path d="M 474.50,228.50 L 475.50,228.50 Z"/>
    <path d="M 476.50,228.50 L 477.50,228.50 Z"/>
    <path d="M 478.50,228.50 L 479.50,228.50 Z"/>
    <path d="M 480.50,228.50 L 481.50,228.50 Z"/>
    <path d="M 544.50,228.50 L 545.50,228.50 Z"/>
    <path d="M 546.50,228.50 L 547.50,228.50 Z"/>
    <path d="M 548.50,228.50 L 549.50,228.50 Z"/>
    <path d="M 550.50,228.50 L 551.50,228.50 Z"/>
    <path d="M 467.50,229.50 L 468.50,229.50 Z"/>
    <path d="M 469.50,229.50 L 470.50,229.50 Z"/>
    <path d="M 471.50,229.50 L 472.50,229.50 Z"/>
    <path d="M 473.50,229.50 L 474.50,229.50 Z"/>
    <path d="M 552.50,229.50 L 553.50,229.50 Z"/>
    <path d="M 554.50,229.50 L 555.50,229.50 Z"/>
    <path d="M 556.50,229.50 L 557.50,229.50 Z"/>
    <path d="M 462.50,230.50 L 463.50,230.50 Z"/>
    <path d="M 464.50,230.50 L 465.50,230.50 Z"/>
    <path d="M 466.50,230.50 L 467.50,230.50 Z"/>
    <path d="M 558.50,230.50 L 559.50,230.50 Z"/>
    <path d="M 560.50,230.50 L 561.50,230.50 Z"/>
    <path d="M 562.50,230.50 L 590.50,237.50 L 612.50,245.50 L 637.50,257.50 L 658.50,270.50 L 675.50,283.50 L 698.50,305.50 L 719.50,331.50 L 733.50,353.50 L 745.50,377.50 L 756.50,407.50 L 762.50,431.50 L 766.50,463.50 L 768.50,465.50 L 781.50,467.50 L 793.50,474.50 L 804.50,486.50 L 811.50,502.50 L 812.50,635.50 L 809.50,645.50 L 800.50,661.50 L 788.50,672.50 L 771.50,679.50 L 746.50,680.50 L 735.50,676.50 L 728.50,669.50 L 725.50,663.50 L 724.50,605.50 L 699.50,603.50 L 683.50,596.50 L 674.50,587.50 L 668.50,578.50 L 662.50,565.50 L 653.50,534.50 L 650.50,532.50 L 646.50,538.50 L 630.50,631.50 L 620.50,665.50 L 609.50,683.50 L 600.50,689.50 L 587.50,691.50 L 579.50,689.50 L 574.50,686.50 L 566.50,677.50 L 559.50,663.50 L 551.50,638.50 L 541.50,589.50 L 535.50,545.50 L 523.50,477.50 L 518.50,457.50 L 515.50,450.50 L 511.50,447.50 L 506.50,454.50 L 501.50,472.50 L 488.50,544.50 L 481.50,593.50 L 470.50,644.50 L 463.50,665.50 L 456.50,678.50 L 450.50,685.50 L 436.50,691.50 L 425.50,690.50 L 416.50,685.50 L 406.50,671.50 L 396.50,642.50 L 380.50,549.50 L 377.50,537.50 L 374.50,533.50 L 372.50,533.50 L 369.50,537.50 L 361.50,566.50 L 354.50,580.50 L 340.50,596.50 L 325.50,603.50 L 300.50,604.50 L 298.50,606.50 L 299.50,659.50 L 298.50,664.50 L 292.50,673.50 L 284.50,678.50 L 277.50,680.50 L 256.50,680.50 L 245.50,677.50 L 234.50,671.50 L 226.50,664.50 L 220.50,656.50 L 212.50,637.50 L 213.50,501.50 L 218.50,489.50 L 231.50,474.50 L 243.50,467.50 L 255.50,465.50 L 257.50,463.50 L 261.50,433.50 L 273.50,391.50 L 287.50,360.50 L 307.50,328.50 L 326.50,305.50 L 341.50,290.50 L 359.50,275.50 L 389.50,256.50 L 420.50,242.50 L 457.50,231.50 L 490.50,226.50 L 533.50,226.50 L 561.50,230.50 Z"/>
    <path d="M 495.50,269.50 L 473.50,272.50 L 448.50,278.50 L 419.50,289.50 L 399.50,300.50 L 372.50,320.50 L 354.50,338.50 L 331.50,369.50 L 321.50,387.50 L 312.50,408.50 L 305.50,430.50 L 301.50,449.50 L 298.50,485.50 L 298.50,569.50 L 300.50,571.50 L 313.50,571.50 L 321.50,568.50 L 331.50,556.50 L 342.50,522.50 L 352.50,504.50 L 360.50,496.50 L 368.50,492.50 L 375.50,491.50 L 384.50,494.50 L 393.50,502.50 L 397.50,508.50 L 406.50,529.50 L 414.50,563.50 L 425.50,628.50 L 428.50,640.50 L 433.50,647.50 L 437.50,642.50 L 440.50,631.50 L 461.50,501.50 L 468.50,468.50 L 476.50,441.50 L 483.50,425.50 L 494.50,410.50 L 508.50,403.50 L 519.50,404.50 L 527.50,408.50 L 537.50,419.50 L 545.50,435.50 L 551.50,452.50 L 562.50,500.50 L 573.50,575.50 L 583.50,631.50 L 587.50,644.50 L 591.50,647.50 L 595.50,641.50 L 600.50,622.50 L 608.50,570.50 L 617.50,529.50 L 626.50,508.50 L 630.50,502.50 L 639.50,494.50 L 651.50,491.50 L 663.50,496.50 L 676.50,511.50 L 685.50,531.50 L 692.50,555.50 L 697.50,563.50 L 706.50,570.50 L 722.50,571.50 L 724.50,569.50 L 724.50,464.50 L 716.50,422.50 L 703.50,388.50 L 684.50,356.50 L 659.50,327.50 L 632.50,305.50 L 600.50,287.50 L 570.50,276.50 L 531.50,269.50 L 496.50,269.50 Z"/>
  </g></svg>