<?xml version="1.0" encoding="UTF-8"?>
<svg width="1024" height="1024" viewBox="0 0 1024 1024" xmlns="http://www.w3.org/2000/svg">
  <g fill="#FFFFFF" stroke="none" transform="scale(2.370370,2.370370)">
    <path d="M 0.50,0.50 L 0.50,1.50 L 1.50,1.50 L 1.50,0.50 Z"/>
    <path d="M 2.50,0.50 L 2.50,1.50 L 3.50,1.50 L 3.50,0.50 Z"/>
    <path d="M 4.50,0.50 L 4.50,1.50 L 5.50,1.50 L 5.50,0.50 Z"/>
    <path d="M 6.50,0.50 L 6.50,1.50 L 7.50,1.50 L 7.50,0.50 Z"/>
    <path d="M 8.50,0.50 L 8.50,1.50 L 9.50,1.50 L 9.50,0.50 Z"/>
    <path d="M 10.50,0.50 L 10.50,1.50 L 11.50,1.50 L 11.50,0.50 Z"/>
    <path d="M 12.50,0.50 L 12.50,1.50 L 13.50,1.50 L 13.50,0.50 Z"/>
    <path d="M 14.50,0.50 L 14.50,1.50 L 15.50,1.50 L 15.50,0.50 Z"/>
    <path d="M 16.50,0.50 L 16.50,1.50 L 17.50,1.50 L 17.50,0.50 Z"/>
    <path d="M 18.50,0.50 L 18.50,1.50 L 19.50,1.50 L 19.50,0.50 Z"/>
    <path d="M 20.50,0.50 L 20.50,1.50 L 21.50,1.50 L 21.50,0.50 Z"/>
    <path d="M 22.50,0.50 L 22.50,1.50 L 23.50,1.50 L 23.50,0.50 Z"/>
    <path d="M 24.50,0.50 L 24.50,1.50 L 25.50,1.50 L 25.50,0.50 Z"/>
    <path d="M 26.50,0.50 L 26.50,1.50 L 27.50,1.50 L 27.50,0.50 Z"/>
    <path d="M 28.50,0.50 L 28.50,1.50 L 29.50,1.50 L 29.50,0.50 Z"/>
    <path d="M 30.50,0.50 L 30.50,1.50 L 31.50,1.50 L 31.50,0.50 Z"/>
    <path d="M 32.50,0.50 L 32.50,1.50 L 33.50,1.50 L 33.50,0.50 Z"/>
    <path d="M 34.50,0.50 L 34.50,1.50 L 35.50,1.50 L 35.50,0.50 Z"/>
    <path d="M 36.50,0.50 L 36.50,1.50 L 37.50,1.50 L 37.50,0.50 Z"/>
    <path d="M 38.50,0.50 L 38.50,1.50 L 39.50,1.50 L 39.50,0.50 Z"/>
    <path d="M 40.50,0.50 L 40.50,1.50 L 41.50,1.50 L 41.50,0.50 Z"/>
    <path d="M 42.50,0.50 L 42.50,1.50 L 43.50,1.50 L 43.50,0.50 Z"/>
    <path d="M 44.50,0.50 L 44.50,1.50 L 45.50,1.50 L 45.50,0.50 Z"/>
    <path d="M 46.50,0.50 L 46.50,1.50 L 47.50,1.50 L 47.50,0.50 Z"/>
    <path d="M 48.50,0.50 L 48.50,1.50 L 49.50,1.50 L 49.50,0.50 Z"/>
    <path d="M 50.50,0.50 L 50.50,1.50 L 51.50,1.50 L 51.50,0.50 Z"/>
    <path d="M 52.50,0.50 L 52.50,1.50 L 53.50,1.50 L 53.50,0.50 Z"/>
    <path d="M 54.50,0.50 L 54.50,1.50 L 55.50,1.50 L 55.50,0.50 Z"/>
    <path d="M 56.50,0.50 L 56.50,1.50 L 57.50,1.50 L 57.50,0.50 Z"/>
    <path d="M 58.50,0.50 L 58.50,1.50 L 59.50,1.50 L 59.50,0.50 Z"/>
    <path d="M 60.50,0.50 L 60.50,1.50 L 61.50,1.50 L 61.50,0.50 Z"/>
    <path d="M 62.50,0.50 L 62.50,1.50 L 63.50,1.50 L 63.50,0.50 Z"/>
    <path d="M 64.50,0.50 L 64.50,1.50 L 65.50,1.50 L 65.50,0.50 Z"/>
    <path d="M 66.50,0.50 L 66.50,1.50 L 67.50,1.50 L 67.50,0.50 Z"/>
    <path d="M 68.50,0.50 L 68.50,1.50 L 69.50,1.50 L 69.50,0.50 Z"/>
    <path d="M 70.50,0.50 L 70.50,1.50 L 71.50,1.50 L 71.50,0.50 Z"/>
    <path d="M 72.50,0.50 L 72.50,1.50 L 73.50,1.50 L 73.50,0.50 Z"/>
    <path d="M 74.50,0.50 L 74.50,1.50 L 75.50,1.50 L 75.50,0.50 Z"/>
    <path d="M 76.50,0.50 L 76.50,1.50 L 77.50,1.50 L 77.50,0.50 Z"/>
    <path d="M 78.50,0.50 L 78.50,1.50 L 79.50,1.50 L 79.50,0.50 Z"/>
    <path d="M 80.50,0.50 L 80.50,1.50 L 81.50,1.50 L 81.50,0.50 Z"/>
    <path d="M 82.50,0.50 L 82.50,1.50 L 83.50,1.50 L 83.50,0.50 Z"/>
    <path d="M 84.50,0.50 L 84.50,1.50 L 85.50,1.50 L 85.50,0.50 Z"/>
    <path d="M 86.50,0.50 L 86.50,1.50 L 87.50,1.50 L 87.50,0.50 Z"/>
    <path d="M 88.50,0.50 L 88.50,1.50 L 89.50,1.50 L 89.50,0.50 Z"/>
    <path d="M 90.50,0.50 L 90.50,1.50 L 91.50,1.50 L 91.50,0.50 Z"/>
    <path d="M 92.50,0.50 L 92.50,1.50 L 93.50,1.50 L 93.50,0.50 Z"/>
    <path d="M 94.50,0.50 L 94.50,1.50 L 95.50,1.50 L 95.50,0.50 Z"/>
    <path d="M 96.50,0.50 L 96.50,1.50 L 97.50,1.50 L 97.50,0.50 Z"/>
    <path d="M 98.50,0.50 L 98.50,1.50 L 99.50,1.50 L 99.50,0.50 Z"/>
    <path d="M 100.50,0.50 L 100.50,1.50 L 101.50,1.50 L 101.50,0.50 Z"/>
    <path d="M 102.50,0.50 L 102.50,1.50 L 103.50,1.50 L 103.50,0.50 Z"/>
    <path d="M 104.50,0.50 L 104.50,1.50 L 105.50,1.50 L 105.50,0.50 Z"/>
    <path d="M 106.50,0.50 L 106.50,1.50 L 107.50,1.50 L 107.50,0.50 Z"/>
    <path d="M 108.50,0.50 L 108.50,1.50 L 109.50,1.50 L 109.50,0.50 Z"/>
    <path d="M 110.50,0.50 L 110.50,1.50 L 111.50,1.50 L 111.50,0.50 Z"/>
    <path d="M 112.50,0.50 L 112.50,1.50 L 113.50,1.50 L 113.50,0.50 Z"/>
    <path d="M 114.50,0.50 L 114.50,1.50 L 115.50,1.50 L 115.50,0.50 Z"/>
    <path d="M 116.50,0.50 L 116.50,1.50 L 117.50,1.50 L 117.50,0.50 Z"/>
    <path d="M 118.50,0.50 L 118.50,1.50 L 119.50,1.50 L 119.50,0.50 Z"/>
    <path d="M 120.50,0.50 L 120.50,1.50 L 121.50,1.50 L 121.50,0.50 Z"/>
    <path d="M 122.50,0.50 L 122.50,1.50 L 123.50,1.50 L 123.50,0.50 Z"/>
    <path d="M 124.50,0.50 L 124.50,1.50 L 125.50,1.50 L 125.50,0.50 Z"/>
    <path d="M 126.50,0.50 L 126.50,1.50 L 127.50,1.50 L 127.50,0.50 Z"/>
    <path d="M 128.50,0.50 L 128.50,1.50 L 129.50,1.50 L 129.50,0.50 Z"/>
    <path d="M 130.50,0.50 L 130.50,1.50 L 131.50,1.50 L 131.50,0.50 Z"/>
    <path d="M 132.50,0.50 L 132.50,1.50 L 133.50,1.50 L 133.50,0.50 Z"/>
    <path d="M 134.50,0.50 L 134.50,1.50 L 135.50,1.50 L 135.50,0.50 Z"/>
    <path d="M 136.50,0.50 L 136.50,1.50 L 137.50,1.50 L 137.50,0.50 Z"/>
    <path d="M 138.50,0.50 L 138.50,1.50 L 139.50,1.50 L 139.50,0.50 Z"/>
    <path d="M 140.50,0.50 L 140.50,1.50 L 141.50,1.50 L 141.50,0.50 Z"/>
    <path d="M 142.50,0.50 L 142.50,1.50 L 143.50,1.50 L 143.50,0.50 Z"/>
    <path d="M 144.50,0.50 L 144.50,1.50 L 145.50,1.50 L 145.50,0.50 Z"/>
    <path d="M 146.50,0.50 L 146.50,1.50 L 147.50,1.50 L 147.50,0.50 Z"/>
    <path d="M 148.50,0.50 L 148.50,1.50 L 149.50,1.50 L 149.50,0.50 Z"/>
    <path d="M 150.50,0.50 L 150.50,1.50 L 151.50,1.50 L 151.50,0.50 Z"/>
    <path d="M 152.50,0.50 L 152.50,1.50 L 153.50,1.50 L 153.50,0.50 Z"/>
    <path d="M 154.50,0.50 L 154.50,1.50 L 155.50,1.50 L 155.50,0.50 Z"/>
    <path d="M 156.50,0.50 L 156.50,1.50 L 157.50,1.50 L 157.50,0.50 Z"/>
    <path d="M 158.50,0.50 L 158.50,1.50 L 159.50,1.50 L 159.50,0.50 Z"/>
    <path d="M 160.50,0.50 L 160.50,1.50 L 161.50,1.50 L 161.50,0.50 Z"/>
    <path d="M 162.50,0.50 L 162.50,1.50 L 163.50,1.50 L 163.50,0.50 Z"/>
    <path d="M 164.50,0.50 L 164.50,1.50 L 165.50,1.50 L 165.50,0.50 Z"/>
    <path d="M 166.50,0.50 L 166.50,1.50 L 167.50,1.50 L 167.50,0.50 Z"/>
    <path d="M 168.50,0.50 L 168.50,1.50 L 169.50,1.50 L 169.50,0.50 Z"/>
    <path d="M 170.50,0.50 L 170.50,1.50 L 171.50,1.50 L 171.50,0.50 Z"/>
    <path d="M 172.50,0.50 L 172.50,1.50 L 173.50,1.50 L 173.50,0.50 Z"/>
    <path d="M 174.50,0.50 L 174.50,1.50 L 175.50,1.50 L 175.50,0.50 Z"/>
    <path d="M 176.50,0.50 L 176.50,1.50 L 177.50,1.50 L 177.50,0.50 Z"/>
    <path d="M 178.50,0.50 L 178.50,1.50 L 179.50,1.50 L 179.50,0.50 Z"/>
    <path d="M 180.50,0.50 L 180.50,1.50 L 181.50,1.50 L 181.50,0.50 Z"/>
    <path d="M 182.50,0.50 L 182.50,1.50 L 183.50,1.50 L 183.50,0.50 Z"/>
    <path d="M 184.50,0.50 L 184.50,1.50 L 185.50,1.50 L 185.50,0.50 Z"/>
    <path d="M 186.50,0.50 L 186.50,1.50 L 187.50,1.50 L 187.50,0.50 Z"/>
    <path d="M 188.50,0.50 L 188.50,1.50 L 189.50,1.50 L 189.50,0.50 Z"/>
    <path d="M 190.50,0.50 L 190.50,1.50 L 191.50,1.50 L 191.50,0.50 Z"/>
    <path d="M 192.50,0.50 L 192.50,1.50 L 193.50,1.50 L 193.50,0.50 Z"/>
    <path d="M 194.50,0.50 L 194.50,1.50 L 195.50,1.50 L 195.50,0.50 Z"/>
    <path d="M 196.50,0.50 L 196.50,1.50 L 197.50,1.50 L 197.50,0.50 Z"/>
    <path d="M 198.50,0.50 L 198.50,1.50 L 199.50,1.50 L 199.50,0.50 Z"/>
    <path d="M 200.50,0.50 L 200.50,1.50 L 201.50,1.50 L 201.50,0.50 Z"/>
    <path d="M 202.50,0.50 L 202.50,1.50 L 203.50,1.50 L 203.50,0.50 Z"/>
    <path d="M 204.50,0.50 L 204.50,1.50 L 205.50,1.50 L 205.50,0.50 Z"/>
    <path d="M 206.50,0.50 L 206.50,1.50 L 207.50,1.50 L 207.50,0.50 Z"/>
    <path d="M 208.50,0.50 L 208.50,1.50 L 209.50,1.50 L 209.50,0.50 Z"/>
    <path d="M 210.50,0.50 L 210.50,1.50 L 211.50,1.50 L 211.50,0.50 Z"/>
    <path d="M 212.50,0.50 L 212.50,1.50 L 213.50,1.50 L 213.50,0.50 Z"/>
    <path d="M 214.50,0.50 L 214.50,1.50 L 215.50,1.50 L 215.50,0.50 Z"/>
    <path d="M 216.50,0.50 L 216.50,1.50 L 217.50,1.50 L 217.50,0.50 Z"/>
    <path d="M 218.50,0.50 L 218.50,1.50 L 219.50,1.50 L 219.50,0.50 Z"/>
    <path d="M 220.50,0.50 L 220.50,1.50 L 221.50,1.50 L 221.50,0.50 Z"/>
    <path d="M 222.50,0.50 L 222.50,1.50 L 223.50,1.50 L 223.50,0.50 Z"/>
    <path d="M 224.50,0.50 L 224.50,1.50 L 225.50,1.50 L 225.50,0.50 Z"/>
    <path d="M 226.50,0.50 L 226.50,1.50 L 227.50,1.50 L 227.50,0.50 Z"/>
    <path d="M 228.50,0.50 L 228.50,1.50 L 229.50,1.50 L 229.50,0.50 Z"/>
    <path d="M 230.50,0.50 L 230.50,1.50 L 231.50,1.50 L 231.50,0.50 Z"/>
    <path d="M 232.50,0.50 L 232.50,1.50 L 233.50,1.50 L 233.50,0.50 Z"/>
    <path d="M 234.50,0.50 L 234.50,1.50 L 235.50,1.50 L 235.50,0.50 Z"/>
    <path d="M 236.50,0.50 L 236.50,1.50 L 237.50,1.50 L 237.50,0.50 Z"/>
    <path d="M 238.50,0.50 L 238.50,1.50 L 239.50,1.50 L 239.50,0.50 Z"/>
    <path d="M 240.50,0.50 L 240.50,1.50 L 241.50,1.50 L 241.50,0.50 Z"/>
    <path d="M 242.50,0.50 L 242.50,1.50 L 243.50,1.50 L 243.50,0.50 Z"/>
    <path d="M 244.50,0.50 L 244.50,1.50 L 245.50,1.50 L 245.50,0.50 Z"/>
    <path d="M 246.50,0.50 L 246.50,1.50 L 247.50,1.50 L 247.50,0.50 Z"/>
    <path d="M 248.50,0.50 L 248.50,1.50 L 249.50,1.50 L 249.50,0.50 Z"/>
    <path d="M 250.50,0.50 L 250.50,1.50 L 251.50,1.50 L 251.50,0.50 Z"/>
    <path d="M 252.50,0.50 L 252.50,1.50 L 253.50,1.50 L 253.50,0.50 Z"/>
    <path d="M 254.50,0.50 L 254.50,1.50 L 255.50,1.50 L 255.50,0.50 Z"/>
    <path d="M 256.50,0.50 L 256.50,1.50 L 257.50,1.50 L 257.50,0.50 Z"/>
    <path d="M 258.50,0.50 L 258.50,1.50 L 259.50,1.50 L 259.50,0.50 Z"/>
    <path d="M 260.50,0.50 L 260.50,1.50 L 261.50,1.50 L 261.50,0.50 Z"/>
    <path d="M 262.50,0.50 L 262.50,1.50 L 263.50,1.50 L 263.50,0.50 Z"/>
    <path d="M 264.50,0.50 L 264.50,1.50 L 265.50,1.50 L 265.50,0.50 Z"/>
    <path d="M 266.50,0.50 L 266.50,1.50 L 267.50,1.50 L 267.50,0.50 Z"/>
    <path d="M 268.50,0.50 L 268.50,1.50 L 269.50,1.50 L 269.50,0.50 Z"/>
    <path d="M 270.50,0.50 L 270.50,1.50 L 271.50,1.50 L 271.50,0.50 Z"/>
    <path d="M 272.50,0.50 L 272.50,1.50 L 273.50,1.50 L 273.50,0.50 Z"/>
    <path d="M 274.50,0.50 L 274.50,1.50 L 275.50,1.50 L 275.50,0.50 Z"/>
    <path d="M 276.50,0.50 L 276.50,1.50 L 277.50,1.50 L 277.50,0.50 Z"/>
    <path d="M 278.50,0.50 L 278.50,1.50 L 279.50,1.50 L 279.50,0.50 Z"/>
    <path d="M 280.50,0.50 L 280.50,1.50 L 281.50,1.50 L 281.50,0.50 Z"/>
    <path d="M 282.50,0.50 L 282.50,1.50 L 283.50,1.50 L 283.50,0.50 Z"/>
    <path d="M 284.50,0.50 L 284.50,1.50 L 285.50,1.50 L 285.50,0.50 Z"/>
    <path d="M 286.50,0.50 L 286.50,1.50 L 287.50,1.50 L 287.50,0.50 Z"/>
    <path d="M 288.50,0.50 L 288.50,1.50 L 289.50,1.50 L 289.50,0.50 Z"/>
    <path d="M 290.50,0.50 L 290.50,1.50 L 291.50,1.50 L 291.50,0.50 Z"/>
    <path d="M 292.50,0.50 L 292.50,1.50 L 293.50,1.50 L 293.50,0.50 Z"/>
    <path d="M 294.50,0.50 L 294.50,1.50 L 295.50,1.50 L 295.50,0.50 Z"/>
    <path d="M 296.50,0.50 L 296.50,1.50 L 297.50,1.50 L 297.50,0.50 Z"/>
    <path d="M 298.50,0.50 L 298.50,1.50 L 299.50,1.50 L 299.50,0.50 Z"/>
    <path d="M 300.50,0.50 L 300.50,1.50 L 301.50,1.50 L 301.50,0.50 Z"/>
    <path d="M 302.50,0.50 L 302.50,1.50 L 303.50,1.50 L 303.50,0.50 Z"/>
    <path d="M 304.50,0.50 L 304.50,1.50 L 305.50,1.50 L 305.50,0.50 Z"/>
    <path d="M 306.50,0.50 L 306.50,1.50 L 307.50,1.50 L 307.50,0.50 Z"/>
    <path d="M 308.50,0.50 L 308.50,1.50 L 309.50,1.50 L 309.50,0.50 Z"/>
    <path d="M 310.50,0.50 L 310.50,1.50 L 311.50,1.50 L 311.50,0.50 Z"/>
    <path d="M 312.50,0.50 L 312.50,1.50 L 313.50,1.50 L 313.50,0.50 Z"/>
    <path d="M 314.50,0.50 L 314.50,1.50 L 315.50,1.50 L 315.50,0.50 Z"/>
    <path d="M 316.50,0.50 L 316.50,1.50 L 317.50,1.50 L 317.50,0.50 Z"/>
    <path d="M 318.50,0.50 L 318.50,1.50 L 319.50,1.50 L 319.50,0.50 Z"/>
    <path d="M 320.50,0.50 L 320.50,1.50 L 321.50,1.50 L 321.50,0.50 Z"/>
    <path d="M 322.50,0.50 L 322.50,1.50 L 323.50,1.50 L 323.50,0.50 Z"/>
    <path d="M 324.50,0.50 L 324.50,1.50 L 325.50,1.50 L 325.50,0.50 Z"/>
    <path d="M 326.50,0.50 L 326.50,1.50 L 327.50,1.50 L 327.50,0.50 Z"/>
    <path d="M 328.50,0.50 L 328.50,1.50 L 329.50,1.50 L 329.50,0.50 Z"/>
    <path d="M 330.50,0.50 L 330.50,1.50 L 331.50,1.50 L 331.50,0.50 Z"/>
    <path d="M 332.50,0.50 L 332.50,1.50 L 333.50,1.50 L 333.50,0.50 Z"/>
    <path d="M 334.50,0.50 L 334.50,1.50 L 335.50,1.50 L 335.50,0.50 Z"/>
    <path d="M 336.50,0.50 L 336.50,1.50 L 337.50,1.50 L 337.50,0.50 Z"/>
    <path d="M 338.50,0.50 L 338.50,1.50 L 339.50,1.50 L 339.50,0.50 Z"/>
    <path d="M 340.50,0.50 L 340.50,1.50 L 341.50,1.50 L 341.50,0.50 Z"/>
    <path d="M 342.50,0.50 L 342.50,1.50 L 343.50,1.50 L 343.50,0.50 Z"/>
    <path d="M 344.50,0.50 L 344.50,1.50 L 345.50,1.50 L 345.50,0.50 Z"/>
    <path d="M 346.50,0.50 L 346.50,1.50 L 347.50,1.50 L 347.50,0.50 Z"/>
    <path d="M 348.50,0.50 L 348.50,1.50 L 349.50,1.50 L 349.50,0.50 Z"/>
    <path d="M 350.50,0.50 L 350.50,1.50 L 351.50,1.50 L 351.50,0.50 Z"/>
    <path d="M 352.50,0.50 L 352.50,1.50 L 353.50,1.50 L 353.50,0.50 Z"/>
    <path d="M 354.50,0.50 L 354.50,1.50 L 355.50,1.50 L 355.50,0.50 Z"/>
    <path d="M 356.50,0.50 L 356.50,1.50 L 357.50,1.50 L 357.50,0.50 Z"/>
    <path d="M 358.50,0.50 L 358.50,1.50 L 359.50,1.50 L 359.50,0.50 Z"/>
    <path d="M 360.50,0.50 L 360.50,1.50 L 361.50,1.50 L 361.50,0.50 Z"/>
    <path d="M 362.50,0.50 L 362.50,1.50 L 363.50,1.50 L 363.50,0.50 Z"/>
    <path d="M 364.50,0.50 L 364.50,1.50 L 365.50,1.50 L 365.50,0.50 Z"/>
    <path d="M 366.50,0.50 L 366.50,1.50 L 367.50,1.50 L 367.50,0.50 Z"/>
    <path d="M 368.50,0.50 L 368.50,1.50 L 369.50,1.50 L 369.50,0.50 Z"/>
    <path d="M 370.50,0.50 L 370.50,1.50 L 371.50,1.50 L 371.50,0.50 Z"/>
    <path d="M 372.50,0.50 L 372.50,1.50 L 373.50,1.50 L 373.50,0.50 Z"/>
    <path d="M 374.50,0.50 L 374.50,1.50 L 375.50,1.50 L 375.50,0.50 Z"/>
    <path d="M 376.50,0.50 L 376.50,1.50 L 377.50,1.50 L 377.50,0.50 Z"/>
    <path d="M 378.50,0.50 L 378.50,1.50 L 379.50,1.50 L 379.50,0.50 Z"/>
    <path d="M 380.50,0.50 L 380.50,1.50 L 381.50,1.50 L 381.50,0.50 Z"/>
    <path d="M 382.50,0.50 L 382.50,1.50 L 383.50,1.50 L 383.50,0.50 Z"/>
    <path d="M 384.50,0.50 L 384.50,1.50 L 385.50,1.50 L 385.50,0.50 Z"/>
    <path d="M 386.50,0.50 L 386.50,1.50 L 387.50,1.50 L 387.50,0.50 Z"/>
    <path d="M 388.50,0.50 L 388.50,1.50 L 389.50,1.50 L 389.50,0.50 Z"/>
    <path d="M 390.50,0.50 L 390.50,1.50 L 391.50,1.50 L 391.50,0.50 Z"/>
    <path d="M 392.50,0.50 L 392.50,1.50 L 393.50,1.50 L 393.50,0.50 Z"/>
    <path d="M 394.50,0.50 L 394.50,1.50 L 395.50,1.50 L 395.50,0.50 Z"/>
    <path d="M 396.50,0.50 L 396.50,1.50 L 397.50,1.50 L 397.50,0.50 Z"/>
    <path d="M 398.50,0.50 L 398.50,1.50 L 399.50,1.50 L 399.50,0.50 Z"/>
    <path d="M 400.50,0.50 L 400.50,1.50 L 401.50,1.50 L 401.50,0.50 Z"/>
    <path d="M 402.50,0.50 L 402.50,1.50 L 403.50,1.50 L 403.50,0.50 Z"/>
    <path d="M 404.50,0.50 L 404.50,1.50 L 405.50,1.50 L 405.50,0.50 Z"/>
    <path d="M 406.50,0.50 L 406.50,1.50 L 407.50,1.50 L 407.50,0.50 Z"/>
    <path d="M 408.50,0.50 L 408.50,1.50 L 409.50,1.50 L 409.50,0.50 Z"/>
    <path d="M 410.50,0.50 L 410.50,1.50 L 411.50,1.50 L 411.50,0.50 Z"/>
    <path d="M 412.50,0.50 L 412.50,1.50 L 413.50,1.50 L 413.50,0.50 Z"/>
    <path d="M 414.50,0.50 L 414.50,1.50 L 415.50,1.50 L 415.50,0.50 Z"/>
    <path d="M 416.50,0.50 L 416.50,1.50 L 417.50,1.50 L 417.50,0.50 Z"/>
    <path d="M 418.50,0.50 L 418.50,1.50 L 419.50,1.50 L 419.50,0.50 Z"/>
    <path d="M 420.50,0.50 L 420.50,1.50 L 421.50,1.50 L 421.50,0.50 Z"/>
    <path d="M 422.50,0.50 L 422.50,1.50 L 423.50,1.50 L 423.50,0.50 Z"/>
    <path d="M 424.50,0.50 L 424.50,1.50 L 425.50,1.50 L 425.50,0.50 Z"/>
    <path d="M 426.50,0.50 L 426.50,1.50 L 427.50,1.50 L 427.50,0.50 Z"/>
    <path d="M 428.50,0.50 L 428.50,1.50 L 429.50,1.50 L 429.50,0.50 Z"/>
    <path d="M 430.50,0.50 L 430.50,1.50 L 431.50,1.50 L 431.50,0.50 Z"/>
    <path d="M 0.50,2.50 L 0.50,3.50 L 1.50,3.50 L 1.50,2.50 Z"/>
    <path d="M 431.50,2.50 L 431.50,431.50 L 0.50,431.50 L 0.50,0.50 L 431.50,0.50 L 431.50,1.50 Z"/>
    <path d="M 107.50,48.50 L 106.50,49.50 L 101.50,49.50 L 100.50,50.50 L 97.50,50.50 L 96.50,51.50 L 88.50,53.50 L 80.50,57.50 L 74.50,61.50 L 69.50,66.50 L 68.50,66.50 L 57.50,80.50 L 52.50,90.50 L 52.50,92.50 L 50.50,96.50 L 50.50,99.50 L 49.50,100.50 L 49.50,104.50 L 48.50,105.50 L 48.50,327.50 L 49.50,328.50 L 49.50,331.50 L 50.50,332.50 L 50.50,335.50 L 51.50,336.50 L 53.50,344.50 L 60.50,356.50 L 70.50,367.50 L 81.50,375.50 L 89.50,379.50 L 91.50,379.50 L 95.50,381.50 L 98.50,381.50 L 99.50,382.50 L 103.50,382.50 L 104.50,383.50 L 327.50,383.50 L 328.50,382.50 L 332.50,382.50 L 333.50,381.50 L 339.50,380.50 L 342.50,378.50 L 344.50,378.50 L 352.50,374.50 L 355.50,371.50 L 360.50,368.50 L 368.50,360.50 L 368.50,359.50 L 374.50,352.50 L 379.50,342.50 L 379.50,340.50 L 381.50,336.50 L 381.50,333.50 L 382.50,332.50 L 382.50,329.50 L 383.50,328.50 L 383.50,104.50 L 382.50,103.50 L 382.50,99.50 L 381.50,98.50 L 381.50,95.50 L 378.50,89.50 L 378.50,87.50 L 375.50,81.50 L 368.50,71.50 L 359.50,62.50 L 350.50,56.50 L 335.50,50.50 L 326.50,49.50 L 325.50,48.50 L 108.50,48.50 Z"/>
    <path d="M 203.50,95.50 L 203.50,96.50 L 204.50,96.50 L 204.50,95.50 Z"/>
    <path d="M 205.50,95.50 L 205.50,96.50 L 206.50,96.50 L 206.50,95.50 Z"/>
    <path d="M 207.50,95.50 L 207.50,96.50 L 208.50,96.50 L 208.50,95.50 Z"/>
    <path d="M 209.50,95.50 L 209.50,96.50 L 210.50,96.50 L 210.50,95.50 Z"/>
    <path d="M 211.50,95.50 L 211.50,96.50 L 212.50,96.50 L 212.50,95.50 Z"/>
    <path d="M 213.50,95.50 L 213.50,96.50 L 214.50,96.50 L 214.50,95.50 Z"/>
    <path d="M 215.50,95.50 L 215.50,96.50 L 216.50,96.50 L 216.50,95.50 Z"/>
    <path d="M 217.50,95.50 L 217.50,96.50 L 218.50,96.50 L 218.50,95.50 Z"/>
    <path d="M 219.50,95.50 L 219.50,96.50 L 220.50,96.50 L 220.50,95.50 Z"/>
    <path d="M 221.50,95.50 L 221.50,96.50 L 222.50,96.50 L 222.50,95.50 Z"/>
    <path d="M 223.50,95.50 L 223.50,96.50 L 224.50,96.50 L 224.50,95.50 Z"/>
    <path d="M 225.50,95.50 L 225.50,96.50 L 226.50,96.50 L 226.50,95.50 Z"/>
    <path d="M 227.50,95.50 L 227.50,96.50 L 228.50,96.50 L 228.50,95.50 Z"/>
    <path d="M 229.50,95.50 L 229.50,96.50 L 235.50,96.50 L 236.50,97.50 L 241.50,97.50 L 245.50,99.50 L 248.50,99.50 L 249.50,100.50 L 254.50,101.50 L 257.50,103.50 L 259.50,103.50 L 271.50,109.50 L 285.50,119.50 L 297.50,131.50 L 308.50,146.50 L 315.50,160.50 L 315.50,162.50 L 317.50,165.50 L 317.50,167.50 L 320.50,174.50 L 320.50,178.50 L 321.50,179.50 L 321.50,183.50 L 322.50,184.50 L 322.50,189.50 L 323.50,190.50 L 323.50,195.50 L 324.50,196.50 L 331.50,197.50 L 334.50,199.50 L 339.50,204.50 L 342.50,211.50 L 342.50,270.50 L 338.50,278.50 L 333.50,283.50 L 327.50,286.50 L 324.50,286.50 L 323.50,287.50 L 314.50,287.50 L 313.50,286.50 L 311.50,286.50 L 305.50,279.50 L 305.50,256.50 L 304.50,255.50 L 297.50,255.50 L 296.50,254.50 L 290.50,253.50 L 284.50,248.50 L 279.50,239.50 L 279.50,237.50 L 274.50,224.50 L 272.50,227.50 L 272.50,232.50 L 271.50,233.50 L 271.50,237.50 L 270.50,238.50 L 270.50,242.50 L 269.50,243.50 L 269.50,249.50 L 268.50,250.50 L 268.50,255.50 L 267.50,256.50 L 266.50,266.50 L 265.50,267.50 L 264.50,274.50 L 260.50,284.50 L 256.50,289.50 L 252.50,291.50 L 244.50,291.50 L 241.50,289.50 L 235.50,279.50 L 235.50,277.50 L 232.50,270.50 L 232.50,267.50 L 230.50,262.50 L 230.50,258.50 L 229.50,257.50 L 229.50,251.50 L 227.50,246.50 L 227.50,241.50 L 226.50,240.50 L 227.50,239.50 L 226.50,238.50 L 226.50,233.50 L 225.50,232.50 L 225.50,227.50 L 224.50,226.50 L 224.50,220.50 L 223.50,219.50 L 223.50,215.50 L 222.50,214.50 L 222.50,210.50 L 221.50,209.50 L 221.50,204.50 L 220.50,203.50 L 218.50,192.50 L 217.50,190.50 L 215.50,189.50 L 213.50,192.50 L 212.50,198.50 L 211.50,199.50 L 211.50,203.50 L 210.50,204.50 L 210.50,209.50 L 209.50,210.50 L 209.50,214.50 L 208.50,215.50 L 208.50,219.50 L 207.50,220.50 L 207.50,226.50 L 206.50,227.50 L 206.50,232.50 L 205.50,233.50 L 205.50,239.50 L 204.50,240.50 L 204.50,245.50 L 203.50,246.50 L 202.50,256.50 L 201.50,257.50 L 201.50,261.50 L 199.50,266.50 L 199.50,270.50 L 198.50,271.50 L 196.50,279.50 L 190.50,289.50 L 186.50,291.50 L 179.50,291.50 L 175.50,289.50 L 172.50,285.50 L 167.50,273.50 L 167.50,270.50 L 165.50,265.50 L 165.50,261.50 L 164.50,260.50 L 165.50,259.50 L 164.50,258.50 L 164.50,254.50 L 163.50,253.50 L 163.50,249.50 L 162.50,248.50 L 161.50,236.50 L 159.50,231.50 L 159.50,227.50 L 157.50,225.50 L 155.50,228.50 L 153.50,237.50 L 147.50,248.50 L 141.50,253.50 L 135.50,254.50 L 134.50,255.50 L 127.50,255.50 L 126.50,256.50 L 126.50,280.50 L 123.50,284.50 L 117.50,287.50 L 108.50,287.50 L 98.50,283.50 L 93.50,278.50 L 89.50,270.50 L 89.50,211.50 L 92.50,205.50 L 99.50,198.50 L 103.50,196.50 L 107.50,196.50 L 108.50,195.50 L 109.50,185.50 L 110.50,184.50 L 110.50,179.50 L 111.50,178.50 L 111.50,175.50 L 112.50,174.50 L 114.50,166.50 L 116.50,163.50 L 116.50,161.50 L 118.50,158.50 L 118.50,156.50 L 120.50,152.50 L 122.50,150.50 L 124.50,145.50 L 127.50,142.50 L 128.50,139.50 L 143.50,122.50 L 144.50,122.50 L 153.50,114.50 L 168.50,105.50 L 170.50,105.50 L 175.50,102.50 L 177.50,102.50 L 187.50,98.50 L 190.50,98.50 L 191.50,97.50 L 196.50,97.50 L 197.50,96.50 L 202.50,96.50 L 203.50,95.50 L 228.50,95.50 Z"/>
    <path d="M 209.50,113.50 L 208.50,114.50 L 202.50,114.50 L 201.50,115.50 L 192.50,116.50 L 191.50,117.50 L 183.50,119.50 L 180.50,121.50 L 178.50,121.50 L 167.50,127.50 L 159.50,133.50 L 147.50,145.50 L 139.50,156.50 L 132.50,170.50 L 132.50,172.50 L 129.50,179.50 L 129.50,182.50 L 128.50,183.50 L 127.50,192.50 L 126.50,193.50 L 126.50,239.50 L 127.50,240.50 L 134.50,240.50 L 138.50,236.50 L 141.50,230.50 L 142.50,224.50 L 144.50,221.50 L 144.50,219.50 L 148.50,212.50 L 151.50,209.50 L 154.50,207.50 L 160.50,207.50 L 162.50,208.50 L 167.50,213.50 L 172.50,225.50 L 172.50,228.50 L 174.50,233.50 L 174.50,237.50 L 175.50,238.50 L 176.50,248.50 L 177.50,249.50 L 178.50,260.50 L 180.50,265.50 L 180.50,269.50 L 181.50,271.50 L 183.50,272.50 L 184.50,271.50 L 184.50,268.50 L 186.50,263.50 L 187.50,253.50 L 188.50,252.50 L 189.50,240.50 L 190.50,239.50 L 190.50,234.50 L 191.50,233.50 L 191.50,227.50 L 192.50,226.50 L 192.50,221.50 L 193.50,220.50 L 193.50,216.50 L 194.50,215.50 L 194.50,209.50 L 195.50,208.50 L 195.50,205.50 L 197.50,200.50 L 197.50,196.50 L 198.50,195.50 L 198.50,192.50 L 199.50,191.50 L 200.50,186.50 L 202.50,183.50 L 203.50,179.50 L 207.50,173.50 L 212.50,170.50 L 219.50,170.50 L 223.50,172.50 L 227.50,177.50 L 230.50,183.50 L 230.50,185.50 L 234.50,195.50 L 234.50,199.50 L 235.50,200.50 L 236.50,208.50 L 237.50,209.50 L 237.50,215.50 L 238.50,216.50 L 238.50,220.50 L 239.50,221.50 L 239.50,226.50 L 240.50,227.50 L 240.50,233.50 L 241.50,234.50 L 242.50,246.50 L 243.50,247.50 L 243.50,252.50 L 244.50,253.50 L 244.50,257.50 L 245.50,258.50 L 245.50,263.50 L 246.50,264.50 L 247.50,270.50 L 249.50,272.50 L 251.50,269.50 L 252.50,263.50 L 253.50,262.50 L 253.50,256.50 L 254.50,255.50 L 254.50,250.50 L 255.50,249.50 L 255.50,245.50 L 256.50,244.50 L 256.50,238.50 L 258.50,233.50 L 259.50,225.50 L 264.50,213.50 L 269.50,208.50 L 271.50,207.50 L 277.50,207.50 L 280.50,209.50 L 283.50,212.50 L 288.50,221.50 L 288.50,223.50 L 293.50,236.50 L 297.50,240.50 L 304.50,240.50 L 305.50,239.50 L 305.50,192.50 L 304.50,191.50 L 304.50,187.50 L 302.50,182.50 L 302.50,178.50 L 300.50,175.50 L 298.50,167.50 L 289.50,151.50 L 279.50,140.50 L 279.50,139.50 L 267.50,129.50 L 251.50,120.50 L 249.50,120.50 L 246.50,118.50 L 244.50,118.50 L 240.50,116.50 L 236.50,116.50 L 235.50,115.50 L 231.50,115.50 L 230.50,114.50 L 224.50,114.50 L 223.50,113.50 L 210.50,113.50 Z"/>
  </g></svg>