<?xml version="1.0" encoding="UTF-8"?>
<svg width="1024" height="1024" viewBox="0 0 1024 1024" xmlns="http://www.w3.org/2000/svg">
  <g fill="#FFFFFF" stroke="none" transform="scale(10.666667,10.666667)">
    <path d="M 12.50,12.50 L 12.50,13.50 L 13.50,13.50 L 13.50,12.50 Z"/>
    <path d="M 14.50,12.50 L 14.50,13.50 L 15.50,13.50 L 15.50,12.50 Z"/>
    <path d="M 16.50,12.50 L 16.50,13.50 L 17.50,13.50 L 17.50,12.50 Z"/>
    <path d="M 18.50,12.50 L 18.50,13.50 L 19.50,13.50 L 19.50,12.50 Z"/>
    <path d="M 20.50,12.50 L 20.50,13.50 L 21.50,13.50 L 21.50,12.50 Z"/>
    <path d="M 22.50,12.50 L 22.50,13.50 L 23.50,13.50 L 23.50,12.50 Z"/>
    <path d="M 24.50,12.50 L 24.50,13.50 L 25.50,13.50 L 25.50,12.50 Z"/>
    <path d="M 26.50,12.50 L 26.50,13.50 L 27.50,13.50 L 27.50,12.50 Z"/>
    <path d="M 28.50,12.50 L 28.50,13.50 L 29.50,13.50 L 29.50,12.50 Z"/>
    <path d="M 30.50,12.50 L 30.50,13.50 L 31.50,13.50 L 31.50,12.50 Z"/>
    <path d="M 32.50,12.50 L 32.50,13.50 L 33.50,13.50 L 33.50,12.50 Z"/>
    <path d="M 34.50,12.50 L 34.50,13.50 L 35.50,13.50 L 35.50,12.50 Z"/>
    <path d="M 36.50,12.50 L 36.50,13.50 L 37.50,13.50 L 37.50,12.50 Z"/>
    <path d="M 38.50,12.50 L 38.50,13.50 L 39.50,13.50 L 39.50,12.50 Z"/>
    <path d="M 40.50,12.50 L 40.50,13.50 L 41.50,13.50 L 41.50,12.50 Z"/>
    <path d="M 42.50,12.50 L 42.50,13.50 L 43.50,13.50 L 43.50,12.50 Z"/>
    <path d="M 44.50,12.50 L 44.50,13.50 L 45.50,13.50 L 45.50,12.50 Z"/>
    <path d="M 46.50,12.50 L 46.50,13.50 L 47.50,13.50 L 47.50,12.50 Z"/>
    <path d="M 48.50,12.50 L 48.50,13.50 L 49.50,13.50 L 49.50,12.50 Z"/>
    <path d="M 50.50,12.50 L 50.50,13.50 L 51.50,13.50 L 51.50,12.50 Z"/>
    <path d="M 52.50,12.50 L 52.50,13.50 L 53.50,13.50 L 53.50,12.50 Z"/>
    <path d="M 54.50,12.50 L 54.50,13.50 L 55.50,13.50 L 55.50,12.50 Z"/>
    <path d="M 56.50,12.50 L 56.50,13.50 L 57.50,13.50 L 57.50,12.50 Z"/>
    <path d="M 58.50,12.50 L 58.50,13.50 L 59.50,13.50 L 59.50,12.50 Z"/>
    <path d="M 60.50,12.50 L 60.50,13.50 L 61.50,13.50 L 61.50,12.50 Z"/>
    <path d="M 62.50,12.50 L 62.50,13.50 L 63.50,13.50 L 63.50,12.50 Z"/>
    <path d="M 64.50,12.50 L 64.50,13.50 L 65.50,13.50 L 65.50,12.50 Z"/>
    <path d="M 66.50,12.50 L 66.50,13.50 L 67.50,13.50 L 67.50,12.50 Z"/>
    <path d="M 68.50,12.50 L 68.50,13.50 L 69.50,13.50 L 69.50,12.50 Z"/>
    <path d="M 70.50,12.50 L 70.50,13.50 L 71.50,13.50 L 71.50,12.50 Z"/>
    <path d="M 72.50,12.50 L 72.50,13.50 L 73.50,13.50 L 73.50,12.50 Z"/>
    <path d="M 74.50,12.50 L 74.50,13.50 L 75.50,13.50 L 75.50,12.50 Z"/>
    <path d="M 76.50,12.50 L 76.50,13.50 L 77.50,13.50 L 77.50,12.50 Z"/>
    <path d="M 78.50,12.50 L 78.50,13.50 L 79.50,13.50 L 79.50,12.50 Z"/>
    <path d="M 80.50,12.50 L 80.50,13.50 L 81.50,13.50 L 81.50,12.50 Z"/>
    <path d="M 82.50,12.50 L 82.50,13.50 L 83.50,13.50 L 83.50,12.50 Z"/>
    <path d="M 12.50,14.50 L 12.50,15.50 L 13.50,15.50 L 13.50,14.50 Z"/>
    <path d="M 83.50,14.50 L 83.50,83.50 L 12.50,83.50 L 12.50,12.50 L 83.50,12.50 L 83.50,13.50 Z"/>
    <path d="M 29.50,19.50 L 23.50,22.50 L 20.50,26.50 L 20.50,28.50 L 19.50,29.50 L 19.50,66.50 L 21.50,71.50 L 24.50,74.50 L 29.50,76.50 L 66.50,76.50 L 71.50,74.50 L 74.50,71.50 L 76.50,66.50 L 76.50,29.50 L 74.50,24.50 L 71.50,21.50 L 66.50,19.50 L 30.50,19.50 Z"/>
    <path d="M 42.50,28.50 L 42.50,29.50 L 43.50,29.50 L 43.50,28.50 Z"/>
    <path d="M 44.50,28.50 L 44.50,29.50 L 45.50,29.50 L 45.50,28.50 Z"/>
    <path d="M 46.50,28.50 L 46.50,29.50 L 47.50,29.50 L 47.50,28.50 Z"/>
    <path d="M 48.50,28.50 L 48.50,29.50 L 49.50,29.50 L 49.50,28.50 Z"/>
    <path d="M 50.50,28.50 L 50.50,29.50 L 51.50,29.50 L 51.50,28.50 Z"/>
    <path d="M 52.50,28.50 L 52.50,29.50 L 53.50,29.50 L 53.50,28.50 Z"/>
    <path d="M 40.50,29.50 L 40.50,30.50 L 41.50,30.50 L 41.50,29.50 Z"/>
    <path d="M 54.50,29.50 L 54.50,30.50 L 55.50,30.50 L 55.50,29.50 Z"/>
    <path d="M 38.50,30.50 L 38.50,31.50 L 39.50,31.50 L 39.50,30.50 Z"/>
    <path d="M 45.50,30.50 L 40.50,32.50 L 34.50,38.50 L 33.50,43.50 L 32.50,44.50 L 32.50,51.50 L 34.50,52.50 L 38.50,46.50 L 40.50,48.50 L 41.50,56.50 L 42.50,57.50 L 43.50,56.50 L 43.50,51.50 L 44.50,50.50 L 45.50,42.50 L 48.50,40.50 L 50.50,42.50 L 51.50,50.50 L 52.50,51.50 L 52.50,56.50 L 53.50,57.50 L 54.50,56.50 L 55.50,48.50 L 57.50,46.50 L 59.50,47.50 L 59.50,49.50 L 61.50,52.50 L 63.50,51.50 L 63.50,44.50 L 62.50,43.50 L 62.50,40.50 L 55.50,32.50 L 50.50,30.50 L 46.50,30.50 Z"/>
    <path d="M 56.50,30.50 L 56.50,31.50 L 57.50,31.50 L 57.50,30.50 Z"/>
    <path d="M 37.50,31.50 L 37.50,32.50 L 38.50,32.50 L 38.50,31.50 Z"/>
    <path d="M 58.50,31.50 L 58.50,32.50 L 59.50,32.50 L 63.50,36.50 L 65.50,43.50 L 68.50,46.50 L 68.50,58.50 L 67.50,59.50 L 63.50,59.50 L 63.50,55.50 L 59.50,53.50 L 57.50,50.50 L 56.50,51.50 L 56.50,56.50 L 55.50,57.50 L 55.50,59.50 L 54.50,60.50 L 52.50,60.50 L 50.50,56.50 L 50.50,51.50 L 49.50,50.50 L 49.50,45.50 L 48.50,44.50 L 46.50,45.50 L 45.50,56.50 L 43.50,60.50 L 41.50,60.50 L 40.50,59.50 L 40.50,57.50 L 39.50,56.50 L 39.50,51.50 L 38.50,50.50 L 36.50,53.50 L 32.50,55.50 L 32.50,59.50 L 27.50,58.50 L 27.50,46.50 L 30.50,43.50 L 32.50,36.50 L 38.50,30.50 L 42.50,28.50 L 53.50,28.50 L 57.50,30.50 Z"/>
  </g></svg>